<svg xmlns="http://www.w3.org/2000/svg" height="40" viewBox="0 -960 960 960" width="40"><path d="M626.001-427.334H184q-23.666 0-38.5-14.833-14.833-14.833-14.833-38.5 0-22 14.833-37.333 14.834-15.333 38.5-15.333h442.001L442.334-717Q427-732.334 426.447-754.615q-.553-22.282 15.833-37.785Q457-808 479.712-808q22.712 0 38.288 16.333L792.667-518q6.272 7.445 11.136 17.63 4.863 10.185 4.863 19.777 0 11.26-4.863 21.393-4.864 10.133-11.136 17.533L517.333-168Q501-151.667 479.167-151.667q-21.834 0-36.5-16.488-16.333-15.381-16.333-37.446 0-22.065 16.333-37.399l183.334-184.334Z"/></svg>